g Liquid
v 0.013 -0.01000005 0.04299999
v 0.043 -0.01000001 0.01249999
v 0.043 -0.009999988 -0.01250001
v 0.013 -0.009999955 -0.04300002
v -0.013 -0.01000005 0.04299999
v -0.013 -0.009999955 -0.04300002
v -0.043 -0.01000001 0.01249999
v -0.043 -0.009999988 -0.01250001
v 0.01689606 0.1595837 -0.05588681
v 0.05588698 0.1595836 -0.01624604
v 0.05588698 0.1595836 0.01624639
v 0.01689606 0.1595835 0.05588716
v -0.01689606 0.1595837 -0.05588681
v -0.01689606 0.1595835 0.05588716
v -0.05588698 0.1595836 -0.01624604
v -0.05588698 0.1595836 0.01624639
v 0.013 -0.009999955 -0.04300002
v 0.043 -0.009999988 -0.01250001
v 0.05588698 0.1595836 -0.01624604
v 0.01689606 0.1595837 -0.05588681
v -0.013 -0.01000005 0.04299999
v -0.043 -0.01000001 0.01249999
v -0.05588698 0.1595836 0.01624639
v -0.01689606 0.1595835 0.05588716
v -0.043 -0.01000001 0.01249999
v -0.043 -0.009999988 -0.01250001
v -0.05588698 0.1595836 -0.01624604
v -0.05588698 0.1595836 0.01624639
v 0.043 -0.009999988 -0.01250001
v 0.043 -0.01000001 0.01249999
v 0.05588698 0.1595836 0.01624639
v 0.05588698 0.1595836 -0.01624604
v 0.013 -0.01000005 0.04299999
v -0.013 -0.01000005 0.04299999
v -0.01689606 0.1595835 0.05588716
v 0.01689606 0.1595835 0.05588716
v -0.013 -0.009999955 -0.04300002
v 0.013 -0.009999955 -0.04300002
v 0.01689606 0.1595837 -0.05588681
v -0.01689606 0.1595837 -0.05588681
v -0.043 -0.009999988 -0.01250001
v -0.013 -0.009999955 -0.04300002
v -0.01689606 0.1595837 -0.05588681
v -0.05588698 0.1595836 -0.01624604
v 0.043 -0.01000001 0.01249999
v 0.013 -0.01000005 0.04299999
v 0.01689606 0.1595835 0.05588716
v 0.05588698 0.1595836 0.01624639

vn 0 -1 -1.072884E-06
vn 0 -1 -1.072884E-06
vn 0 -1 -1.072884E-06
vn 0 -1 -1.072884E-06
vn 0 -1 -1.072884E-06
vn 0 -1 -1.072884E-06
vn 0 -1 -1.072884E-06
vn 0 -1 -1.072884E-06
vn 0 1 1.072884E-06
vn 0 1 1.072884E-06
vn 0 1 1.072884E-06
vn 0 1 1.072884E-06
vn 0 1 1.072884E-06
vn 0 1 1.072884E-06
vn 0 1 1.072884E-06
vn 0 1 1.072884E-06
vn 0.7112024 -0.06949824 -0.6995435
vn 0.7112024 -0.06949824 -0.6995435
vn 0.7112024 -0.06949824 -0.6995435
vn 0.7112024 -0.06949824 -0.6995435
vn -0.7112024 -0.06949975 0.6995434
vn -0.7112024 -0.06949975 0.6995434
vn -0.7112024 -0.06949975 0.6995434
vn -0.7112024 -0.06949975 0.6995434
vn -0.9971251 -0.07577343 -8.129606E-08
vn -0.9971251 -0.07577343 -8.129606E-08
vn -0.9971251 -0.07577343 -8.129606E-08
vn -0.9971251 -0.07577343 -8.129606E-08
vn 0.9971251 -0.07577343 -8.129606E-08
vn 0.9971251 -0.07577343 -8.129606E-08
vn 0.9971251 -0.07577343 -8.129606E-08
vn 0.9971251 -0.07577343 -8.129606E-08
vn 0 -0.07577448 0.9971251
vn 0 -0.07577448 0.9971251
vn 0 -0.07577448 0.9971251
vn 0 -0.07577448 0.9971251
vn 0 -0.07577234 -0.9971253
vn 0 -0.07577234 -0.9971253
vn 0 -0.07577234 -0.9971253
vn 0 -0.07577234 -0.9971253
vn -0.7112024 -0.06949824 -0.6995435
vn -0.7112024 -0.06949824 -0.6995435
vn -0.7112024 -0.06949824 -0.6995435
vn -0.7112024 -0.06949824 -0.6995435
vn 0.7112024 -0.06949975 0.6995434
vn 0.7112024 -0.06949975 0.6995434
vn 0.7112024 -0.06949975 0.6995434
vn 0.7112024 -0.06949975 0.6995434

vt 0.4504349 0.235311
vt 0.5720534 0.2333007
vt 0.6218972 0.1826262
vt 0.6218972 0.06099105
vt 0.3977337 0.1834736
vt 0.5691957 0.009153843
vt 0.3977337 0.06183839
vt 0.4475772 0.01116419
vt 0.5983257 0.1689664
vt 0.5983254 0.07121241
vt 0.5582682 0.0304873
vt 0.4605275 0.02887154
vt 0.5559713 0.2106261
vt 0.4181733 0.07053161
vt 0.4582309 0.2090104
vt 0.4181733 0.1682853
vt 0.8774061 0.2007945
vt 0.763993 0.2240992
vt 0.8397239 0.6782183
vt 0.9871264 0.6479292
vt 0.5113039 0.2450563
vt 0.395605 0.2406626
vt 0.3609312 0.6997437
vt 0.5113039 0.7054555
vt 0.395605 0.2406626
vt 0.3282673 0.2340811
vt 0.2734118 0.6911924
vt 0.3609312 0.6997437
vt 0.763993 0.2240992
vt 0.6970275 0.2337562
vt 0.7526874 0.6907693
vt 0.8397239 0.6782183
vt 0.5816517 0.2434441
vt 0.5113039 0.2450563
vt 0.5113039 0.7054555
vt 0.6027341 0.7033603
vt 0.2139065 0.2159945
vt 0.1452017 0.2007945
vt 0.03548145 0.6479292
vt 0.1247766 0.6676825
vt 0.3282673 0.2340811
vt 0.2139065 0.2159945
vt 0.1247766 0.6676825
vt 0.2734118 0.6911924
vt 0.6970275 0.2337562
vt 0.5816517 0.2434441
vt 0.6027341 0.7033603
vt 0.7526874 0.6907693

usemtl Liquid (Instance) (Instance)
usemap Liquid (Instance) (Instance)
f 2/2/2 1/1/1 3/3/3
f 4/4/4 3/3/3 1/1/1
f 5/5/5 4/4/4 1/1/1
f 6/6/6 4/4/4 5/5/5
f 7/7/7 6/6/6 5/5/5
f 8/8/8 6/6/6 7/7/7
f 10/10/10 9/9/9 11/11/11
f 12/12/12 11/11/11 9/9/9
f 13/13/13 12/12/12 9/9/9
f 14/14/14 12/12/12 13/13/13
f 15/15/15 14/14/14 13/13/13
f 16/16/16 14/14/14 15/15/15
f 18/18/18 17/17/17 19/19/19
f 19/19/19 17/17/17 20/20/20
f 22/22/22 21/21/21 23/23/23
f 23/23/23 21/21/21 24/24/24
f 26/26/26 25/25/25 27/27/27
f 27/27/27 25/25/25 28/28/28
f 30/30/30 29/29/29 31/31/31
f 31/31/31 29/29/29 32/32/32
f 34/34/34 33/33/33 35/35/35
f 35/35/35 33/33/33 36/36/36
f 38/38/38 37/37/37 39/39/39
f 39/39/39 37/37/37 40/40/40
f 42/42/42 41/41/41 43/43/43
f 43/43/43 41/41/41 44/44/44
f 46/46/46 45/45/45 47/47/47
f 47/47/47 45/45/45 48/48/48
