g SodaGlassmodipivot.asset
v -0.05291199 -0.01340007 0.0167573
v -0.05291199 -0.01340003 -0.01675738
v -0.06841133 0.1982834 -0.02166582
v -0.06841133 0.1982834 0.02166624
v 0.05735848 0.1982282 -0.01709273
v 0.04389443 0.01121394 -0.01308064
v 0.01308062 0.01121398 -0.04389445
v 0.01709295 0.1982283 -0.05735828
v 0.01879075 0.2021163 0.06153608
v 0.02016326 0.2021163 0.06484962
v -0.02016322 0.2021164 0.06484962
v -0.01879071 0.2021164 0.06153608
v -0.06484937 0.2021164 0.02016347
v -0.06153583 0.2021164 0.01879095
v -0.06484937 0.2021164 -0.02016303
v -0.06153583 0.2021164 -0.01879052
v -0.02016322 0.2021165 -0.06484921
v -0.01879071 0.2021165 -0.06153566
v 0.02016326 0.2021165 -0.06484921
v 0.01879075 0.2021165 -0.06153566
v 0.06484941 0.2021164 -0.02016303
v 0.06153587 0.2021164 -0.01879052
v 0.06484941 0.2021164 0.02016347
v 0.06153587 0.2021164 0.01879095
v 0.02016326 0.2021163 0.06484962
v 0.01879075 0.2021163 0.06153608
v -0.01675734 -0.01339999 -0.05291204
v 0.01675734 -0.0134 -0.05291204
v 0.02166604 0.1982835 -0.06841116
v -0.021666 0.1982835 -0.06841116
v 0.05291199 -0.01340004 -0.01675738
v 0.05291199 -0.01340008 0.0167573
v 0.06841137 0.1982834 0.02166624
v 0.06841137 0.1982834 -0.02166582
v 0.01362004 -0.007918381 0.04533786
v 0.04533787 -0.007918348 0.01362001
v 0.04533787 -0.007918316 -0.01362008
v 0.01362004 -0.007918273 -0.04533792
v -0.01362004 -0.007918379 0.04533786
v -0.01362004 -0.007918271 -0.04533792
v -0.04533787 -0.00791834 0.01362001
v -0.04533787 -0.007918307 -0.01362008
v -0.04533787 -0.00791834 0.01362001
v -0.05291199 -0.01340007 0.0167573
v -0.01675734 -0.01340012 0.05291197
v -0.01362004 -0.007918379 0.04533786
v -0.01362004 -0.007918271 -0.04533792
v -0.01675734 -0.01339999 -0.05291204
v -0.05291199 -0.01340003 -0.01675738
v -0.04533787 -0.007918307 -0.01362008
v 0.04533787 -0.007918316 -0.01362008
v 0.05291199 -0.01340004 -0.01675738
v 0.01675734 -0.0134 -0.05291204
v 0.01362004 -0.007918273 -0.04533792
v 0.01362004 -0.007918381 0.04533786
v 0.01675734 -0.01340013 0.05291197
v 0.05291199 -0.01340008 0.0167573
v 0.04533787 -0.007918348 0.01362001
v -0.04533787 -0.007918307 -0.01362008
v -0.05291199 -0.01340003 -0.01675738
v -0.05291199 -0.01340007 0.0167573
v -0.04533787 -0.00791834 0.01362001
v 0.01362004 -0.007918273 -0.04533792
v 0.01675734 -0.0134 -0.05291204
v -0.01675734 -0.01339999 -0.05291204
v -0.01362004 -0.007918271 -0.04533792
v 0.04533787 -0.007918348 0.01362001
v 0.05291199 -0.01340008 0.0167573
v 0.05291199 -0.01340004 -0.01675738
v 0.04533787 -0.007918316 -0.01362008
v -0.01362004 -0.007918379 0.04533786
v -0.01675734 -0.01340012 0.05291197
v 0.01675734 -0.01340013 0.05291197
v 0.01362004 -0.007918381 0.04533786
v -0.05735844 0.1982282 -0.01709273
v -0.04389443 0.01121395 -0.01308064
v -0.04389443 0.01121392 0.01308062
v -0.05735844 0.1982282 0.01709314
v 0.01709295 0.1982283 -0.05735828
v 0.01308062 0.01121398 -0.04389445
v -0.01308062 0.01121398 -0.04389445
v -0.01709291 0.1982283 -0.05735828
v 0.01675734 -0.01340013 0.05291197
v -0.01675734 -0.01340012 0.05291197
v -0.021666 0.1982833 0.06841158
v 0.02166604 0.1982833 0.06841158
v -0.01709291 0.1982283 -0.05735828
v -0.01308062 0.01121398 -0.04389445
v -0.04389443 0.01121395 -0.01308064
v -0.05735844 0.1982282 -0.01709273
v 0.05735848 0.1982282 0.01709314
v 0.04389443 0.01121391 0.01308062
v 0.04389443 0.01121394 -0.01308064
v 0.05735848 0.1982282 -0.01709273
v -0.021666 0.1982835 -0.06841116
v -0.06841133 0.1982834 -0.02166582
v -0.05291199 -0.01340003 -0.01675738
v -0.01675734 -0.01339999 -0.05291204
v -0.01709291 0.1982282 0.05735869
v -0.01308062 0.01121388 0.04389444
v 0.01308062 0.01121388 0.04389444
v 0.01709295 0.1982281 0.05735869
v 0.06841137 0.1982834 -0.02166582
v 0.02166604 0.1982835 -0.06841116
v 0.01675734 -0.0134 -0.05291204
v 0.05291199 -0.01340004 -0.01675738
v 0.01709295 0.1982281 0.05735869
v 0.01308062 0.01121388 0.04389444
v 0.04389443 0.01121391 0.01308062
v 0.05735848 0.1982282 0.01709314
v 0.02166604 0.1982833 0.06841158
v 0.06841137 0.1982834 0.02166624
v 0.05291199 -0.01340008 0.0167573
v 0.01675734 -0.01340013 0.05291197
v 0.01308062 0.01121398 -0.04389445
v 0.04389443 0.01121394 -0.01308064
v 0.04389443 0.01121391 0.01308062
v 0.01308062 0.01121388 0.04389444
v -0.01308062 0.01121398 -0.04389445
v -0.01308062 0.01121388 0.04389444
v -0.04389443 0.01121395 -0.01308064
v -0.04389443 0.01121392 0.01308062
v -0.01709291 0.1982282 0.05735869
v -0.01879071 0.2021164 0.06153608
v -0.06153583 0.2021164 0.01879095
v -0.05735844 0.1982282 0.01709314
v -0.05735844 0.1982282 -0.01709273
v -0.06153583 0.2021164 -0.01879052
v -0.01879071 0.2021165 -0.06153566
v -0.01709291 0.1982283 -0.05735828
v 0.01709295 0.1982283 -0.05735828
v 0.01879075 0.2021165 -0.06153566
v 0.06153587 0.2021164 -0.01879052
v 0.05735848 0.1982282 -0.01709273
v 0.05735848 0.1982282 0.01709314
v 0.06153587 0.2021164 0.01879095
v 0.01879075 0.2021163 0.06153608
v 0.01709295 0.1982281 0.05735869
v -0.05735844 0.1982282 0.01709314
v -0.06153583 0.2021164 0.01879095
v -0.06153583 0.2021164 -0.01879052
v -0.05735844 0.1982282 -0.01709273
v 0.01709295 0.1982281 0.05735869
v 0.01879075 0.2021163 0.06153608
v -0.01879071 0.2021164 0.06153608
v -0.01709291 0.1982282 0.05735869
v 0.06153587 0.2021164 0.01879095
v 0.05735848 0.1982282 0.01709314
v 0.05735848 0.1982282 -0.01709273
v 0.06153587 0.2021164 -0.01879052
v 0.01879075 0.2021165 -0.06153566
v 0.01709295 0.1982283 -0.05735828
v -0.01709291 0.1982283 -0.05735828
v -0.01879071 0.2021165 -0.06153566
v -0.05735844 0.1982282 0.01709314
v -0.04389443 0.01121392 0.01308062
v -0.01308062 0.01121388 0.04389444
v -0.01709291 0.1982282 0.05735869
v -0.02016322 0.2021164 0.06484962
v -0.021666 0.1982833 0.06841158
v -0.06841133 0.1982834 0.02166624
v -0.06484937 0.2021164 0.02016347
v -0.06484937 0.2021164 -0.02016303
v -0.06841133 0.1982834 -0.02166582
v -0.021666 0.1982835 -0.06841116
v -0.02016322 0.2021165 -0.06484921
v 0.02016326 0.2021165 -0.06484921
v 0.02166604 0.1982835 -0.06841116
v 0.06841137 0.1982834 -0.02166582
v 0.06484941 0.2021164 -0.02016303
v 0.06484941 0.2021164 0.02016347
v 0.06841137 0.1982834 0.02166624
v 0.02166604 0.1982833 0.06841158
v 0.02016326 0.2021163 0.06484962
v -0.06484937 0.2021164 0.02016347
v -0.06841133 0.1982834 0.02166624
v -0.06841133 0.1982834 -0.02166582
v -0.06484937 0.2021164 -0.02016303
v 0.02016326 0.2021163 0.06484962
v 0.02166604 0.1982833 0.06841158
v -0.021666 0.1982833 0.06841158
v -0.02016322 0.2021164 0.06484962
v 0.06841137 0.1982834 0.02166624
v 0.06484941 0.2021164 0.02016347
v 0.06484941 0.2021164 -0.02016303
v 0.06841137 0.1982834 -0.02166582
v 0.02166604 0.1982835 -0.06841116
v 0.02016326 0.2021165 -0.06484921
v -0.02016322 0.2021165 -0.06484921
v -0.021666 0.1982835 -0.06841116
v -0.01675734 -0.01340012 0.05291197
v -0.05291199 -0.01340007 0.0167573
v -0.06841133 0.1982834 0.02166624
v -0.021666 0.1982833 0.06841158

vn -0.9973302 -0.07302401 -7.399369E-08
vn -0.9973302 -0.07302401 -7.399369E-08
vn -0.9973302 -0.07302401 -7.399369E-08
vn -0.9973302 -0.07302401 -7.399369E-08
vn -0.7055681 0.06593409 0.7055684
vn -0.7055681 0.06593409 0.7055684
vn -0.7055681 0.06593409 0.7055684
vn -0.7055681 0.06593409 0.7055684
vn 2.04687E-06 1 1.122356E-06
vn 2.04687E-06 1 1.122357E-06
vn -1.677445E-06 1 1.013279E-06
vn -1.677445E-06 1 1.013279E-06
vn -4.817555E-06 1 1.013279E-06
vn -4.817556E-06 1 1.013279E-06
vn -2.955398E-06 1 1.122356E-06
vn -2.955398E-06 1 1.122356E-06
vn 3.694245E-07 1 1.122356E-06
vn 3.694247E-07 1 1.122356E-06
vn 3.694245E-07 1 1.013279E-06
vn 3.694247E-07 1 1.013279E-06
vn 2.955398E-06 1 1.013279E-06
vn 2.955398E-06 1 1.013279E-06
vn 4.817555E-06 1 1.122357E-06
vn 4.817556E-06 1 1.122356E-06
vn 2.04687E-06 1 1.122357E-06
vn 2.04687E-06 1 1.122356E-06
vn 0 -0.07302292 -0.9973306
vn 0 -0.07302292 -0.9973306
vn 0 -0.07302292 -0.9973306
vn 0 -0.07302292 -0.9973306
vn 0.9973302 -0.0730242 -7.399387E-08
vn 0.9973302 -0.0730242 -7.399387E-08
vn 0.9973302 -0.0730242 -7.399387E-08
vn 0.9973302 -0.0730242 -7.399387E-08
vn 0 -1 -1.170401E-06
vn 0 -1 -1.170401E-06
vn 0 -1 -1.170401E-06
vn 0 -1 -1.170401E-06
vn 0 -1 -1.170401E-06
vn 0 -1 -1.170401E-06
vn 0 -1 -1.170401E-06
vn 0 -1 -1.170401E-06
vn 0.4145775 -0.8100929 -0.4145787
vn 0.4145775 -0.8100929 -0.4145787
vn 0.4145775 -0.8100929 -0.4145787
vn 0.4145775 -0.8100929 -0.4145787
vn 0.4145775 -0.810094 0.4145768
vn 0.4145775 -0.810094 0.4145768
vn 0.4145775 -0.810094 0.4145768
vn 0.4145775 -0.810094 0.4145768
vn -0.4145776 -0.8100939 0.4145766
vn -0.4145776 -0.8100939 0.4145766
vn -0.4145776 -0.8100939 0.4145766
vn -0.4145776 -0.8100939 0.4145766
vn -0.4145777 -0.8100929 -0.4145787
vn -0.4145777 -0.8100929 -0.4145787
vn -0.4145777 -0.8100929 -0.4145787
vn -0.4145777 -0.8100929 -0.4145787
vn 0.586301 -0.8100936 -9.98632E-07
vn 0.586301 -0.8100936 -9.98632E-07
vn 0.586301 -0.8100936 -9.98632E-07
vn 0.586301 -0.8100936 -9.98632E-07
vn 0 -0.8100942 0.5863004
vn 0 -0.8100942 0.5863004
vn 0 -0.8100942 0.5863004
vn 0 -0.8100942 0.5863004
vn -0.5863011 -0.8100935 -8.208506E-07
vn -0.5863011 -0.8100935 -8.208506E-07
vn -0.5863011 -0.8100935 -8.208506E-07
vn -0.5863011 -0.8100935 -8.208506E-07
vn 0 -0.8100928 -0.5863022
vn 0 -0.8100928 -0.5863022
vn 0 -0.8100928 -0.5863022
vn 0 -0.8100928 -0.5863022
vn 0.9974184 0.07180879 7.276233E-08
vn 0.9974184 0.07180879 7.276233E-08
vn 0.9974184 0.07180879 7.276233E-08
vn 0.9974184 0.07180879 7.276233E-08
vn 0 0.07180773 0.9974188
vn 0 0.07180773 0.9974188
vn 0 0.07180773 0.9974188
vn 0 0.07180773 0.9974188
vn 0 -0.07302526 0.9973305
vn 0 -0.07302526 0.9973305
vn 0 -0.07302526 0.9973305
vn 0 -0.07302526 0.9973305
vn 0.7055681 0.06593397 0.7055685
vn 0.7055681 0.06593397 0.7055685
vn 0.7055681 0.06593397 0.7055685
vn 0.7055681 0.06593397 0.7055685
vn -0.9974184 0.07180898 7.276252E-08
vn -0.9974184 0.07180898 7.276252E-08
vn -0.9974184 0.07180898 7.276252E-08
vn -0.9974184 0.07180898 7.276252E-08
vn -0.7054694 -0.06801227 -0.7054697
vn -0.7054694 -0.06801227 -0.7054697
vn -0.7054694 -0.06801227 -0.7054697
vn -0.7054694 -0.06801227 -0.7054697
vn 0 0.07181004 -0.9974187
vn 0 0.07181004 -0.9974187
vn 0 0.07181004 -0.9974187
vn 0 0.07181004 -0.9974187
vn 0.7054694 -0.06801242 -0.7054697
vn 0.7054694 -0.06801242 -0.7054697
vn 0.7054694 -0.06801242 -0.7054697
vn 0.7054694 -0.06801242 -0.7054697
vn -0.7055681 0.06593574 -0.7055683
vn -0.7055681 0.06593574 -0.7055683
vn -0.7055681 0.06593574 -0.7055683
vn -0.7055681 0.06593574 -0.7055683
vn 0.7054694 -0.06801406 0.7054696
vn 0.7054694 -0.06801406 0.7054696
vn 0.7054694 -0.06801406 0.7054696
vn 0.7054694 -0.06801406 0.7054696
vn 0 1 1.17891E-06
vn 0 1 1.17891E-06
vn 0 1 1.17891E-06
vn 0 1 1.17891E-06
vn 0 1 1.17891E-06
vn 0 1 1.17891E-06
vn 0 1 1.17891E-06
vn 0 1 1.17891E-06
vn 0.483188 0.73011 -0.4831866
vn 0.483188 0.73011 -0.4831866
vn 0.483188 0.73011 -0.4831866
vn 0.483188 0.73011 -0.4831866
vn 0.4831879 0.730109 0.4831883
vn 0.4831879 0.730109 0.4831883
vn 0.4831879 0.730109 0.4831883
vn 0.4831879 0.730109 0.4831883
vn -0.483188 0.730109 0.4831881
vn -0.483188 0.730109 0.4831881
vn -0.483188 0.730109 0.4831881
vn -0.483188 0.730109 0.4831881
vn -0.483188 0.73011 -0.4831865
vn -0.483188 0.73011 -0.4831865
vn -0.483188 0.73011 -0.4831865
vn -0.483188 0.73011 -0.4831865
vn 0.6813176 0.7319881 7.417081E-07
vn 0.6813176 0.7319881 7.417081E-07
vn 0.6813176 0.7319881 7.417081E-07
vn 0.6813176 0.7319881 7.417081E-07
vn 4.656967E-07 0.7319896 -0.6813162
vn 4.656967E-07 0.7319896 -0.6813162
vn 4.656967E-07 0.7319896 -0.6813162
vn 4.656967E-07 0.7319896 -0.6813162
vn -0.6813176 0.7319881 7.417081E-07
vn -0.6813176 0.7319881 7.417081E-07
vn -0.6813176 0.7319881 7.417081E-07
vn -0.6813176 0.7319881 7.417081E-07
vn 4.656971E-07 0.7319879 0.6813183
vn 4.656971E-07 0.7319879 0.6813183
vn 4.656971E-07 0.7319879 0.6813183
vn 4.656971E-07 0.7319879 0.6813183
vn 0.705568 0.06593562 -0.7055684
vn 0.705568 0.06593562 -0.7055684
vn 0.705568 0.06593562 -0.7055684
vn 0.705568 0.06593562 -0.7055684
vn -0.5166773 0.6827069 0.5166783
vn -0.5166773 0.6827069 0.5166783
vn -0.5166773 0.6827069 0.5166783
vn -0.5166773 0.6827069 0.5166783
vn -0.5166776 0.6827077 -0.516677
vn -0.5166776 0.6827077 -0.516677
vn -0.5166776 0.6827077 -0.516677
vn -0.5166776 0.6827077 -0.516677
vn 0.5166792 0.6827068 -0.5166764
vn 0.5166792 0.6827068 -0.5166764
vn 0.5166792 0.6827068 -0.5166764
vn 0.5166792 0.6827068 -0.5166764
vn 0.5166789 0.682706 0.5166777
vn 0.5166789 0.682706 0.5166777
vn 0.5166789 0.682706 0.5166777
vn 0.5166789 0.682706 0.5166777
vn -0.7325338 0.6807308 6.897702E-07
vn -0.7325338 0.6807308 6.897702E-07
vn -0.7325338 0.6807308 6.897702E-07
vn -0.7325338 0.6807308 6.897702E-07
vn 6.535777E-07 0.6807296 0.7325353
vn 6.535777E-07 0.6807296 0.7325353
vn 6.535777E-07 0.6807296 0.7325353
vn 6.535777E-07 0.6807296 0.7325353
vn 0.7325338 0.6807308 6.897702E-07
vn 0.7325338 0.6807308 6.897702E-07
vn 0.7325338 0.6807308 6.897702E-07
vn 0.7325338 0.6807308 6.897702E-07
vn 0 0.6807315 -0.7325335
vn 0 0.6807315 -0.7325335
vn 0 0.6807315 -0.7325335
vn 0 0.6807315 -0.7325335
vn -0.7054694 -0.06801393 0.7054696
vn -0.7054694 -0.06801393 0.7054696
vn -0.7054694 -0.06801393 0.7054696
vn -0.7054694 -0.06801393 0.7054696

vt 0.2302163 0.8671613
vt 0.3004732 0.8629397
vt 0.2919681 0.4840335
vt 0.214014 0.4818944
vt 0.6079096 0.4404508
vt 0.5378248 0.03632453
vt 0.4520475 0.04855809
vt 0.4863276 0.4514308
vt 0.01334967 0.4201685
vt 0.007940862 0.4257963
vt 0.08925332 0.4562035
vt 0.09091385 0.4494801
vt 0.2149492 0.4712625
vt 0.2155966 0.4645996
vt 0.2919556 0.4736438
vt 0.292066 0.4671059
vt 0.4115452 0.4727252
vt 0.4115152 0.4662543
vt 0.4873251 0.4694422
vt 0.4869278 0.4628574
vt 0.6100487 0.4589185
vt 0.6092725 0.4521374
vt 0.6913215 0.4443699
vt 0.6891776 0.4372613
vt 0.820157 0.3871013
vt 0.8139998 0.3812958
vt 0.4105161 0.8607761
vt 0.4802012 0.8606591
vt 0.4880968 0.4798903
vt 0.4116427 0.4829973
vt 0.5903278 0.8643119
vt 0.66118 0.8719361
vt 0.6947122 0.4554925
vt 0.6112894 0.4697375
vt 0.8685102 0.1709546
vt 0.9604141 0.1709545
vt 0.9998787 0.1314899
vt 0.9998787 0.03958601
vt 0.8290455 0.1314899
vt 0.960414 0.0001213215
vt 0.8290455 0.039586
vt 0.8685102 0.000121329
vt 0.232328 0.8901018
vt 0.2302163 0.8671613
vt 0.1178015 0.8824961
vt 0.1229765 0.9050491
vt 0.4106254 0.8836281
vt 0.4105161 0.8607761
vt 0.3004732 0.8629397
vt 0.3006874 0.8856236
vt 0.5886635 0.8869877
vt 0.5903278 0.8643119
vt 0.4802012 0.8606591
vt 0.4791411 0.8832565
vt 0.7645339 0.9289813
vt 0.7794542 0.9088489
vt 0.66118 0.8719361
vt 0.6561331 0.8937736
vt 0.3006874 0.8856236
vt 0.3004732 0.8629397
vt 0.2302163 0.8671613
vt 0.232328 0.8901018
vt 0.4791411 0.8832565
vt 0.4802012 0.8606591
vt 0.4105161 0.8607761
vt 0.4106254 0.8836281
vt 0.6561331 0.8937736
vt 0.66118 0.8719361
vt 0.5903278 0.8643119
vt 0.5886635 0.8869877
vt 0.1229765 0.9050491
vt 0.1178015 0.8824961
vt 0.04407782 0.908199
vt 0.05986406 0.9289813
vt 0.2923856 0.4557815
vt 0.3139377 0.0513581
vt 0.2620149 0.04707649
vt 0.216785 0.4530849
vt 0.4863276 0.4514308
vt 0.4520475 0.04855809
vt 0.4002425 0.05183002
vt 0.4115056 0.4550272
vt 0.04407782 0.908199
vt 0.1178015 0.8824961
vt 0.08696774 0.4668406
vt 0.0001213215 0.4360115
vt 0.4115056 0.4550272
vt 0.4002425 0.05183002
vt 0.3139377 0.0513581
vt 0.2923856 0.4557815
vt 0.6854715 0.424867
vt 0.5891549 0.02531168
vt 0.5378248 0.03632453
vt 0.6079096 0.4404508
vt 0.4116427 0.4829973
vt 0.2919681 0.4840335
vt 0.3004732 0.8629397
vt 0.4105161 0.8607761
vt 0.09399666 0.4377126
vt 0.1764759 0.03316358
vt 0.1217694 0.02027455
vt 0.02100227 0.4103802
vt 0.6112894 0.4697375
vt 0.4880968 0.4798903
vt 0.4802012 0.8606591
vt 0.5903278 0.8643119
vt 0.805226 0.3713962
vt 0.6725809 0.0001212955
vt 0.5891549 0.02531168
vt 0.6854715 0.424867
vt 0.8288029 0.3977258
vt 0.6947122 0.4554925
vt 0.66118 0.8719361
vt 0.7794542 0.9088489
vt 0.8290455 0.2090989
vt 0.8290455 0.2983833
vt 0.8669472 0.336285
vt 0.9562317 0.3362849
vt 0.8669472 0.1711972
vt 0.9941334 0.2983832
vt 0.9562316 0.1711972
vt 0.9941333 0.2090989
vt 0.09399666 0.4377126
vt 0.09091385 0.4494801
vt 0.2155966 0.4645996
vt 0.216785 0.4530849
vt 0.2923856 0.4557815
vt 0.292066 0.4671059
vt 0.4115152 0.4662543
vt 0.4115056 0.4550272
vt 0.4863276 0.4514308
vt 0.4869278 0.4628574
vt 0.6092725 0.4521374
vt 0.6079096 0.4404508
vt 0.6854715 0.424867
vt 0.6891776 0.4372613
vt 0.8139998 0.3812958
vt 0.805226 0.3713962
vt 0.216785 0.4530849
vt 0.2155966 0.4645996
vt 0.292066 0.4671059
vt 0.2923856 0.4557815
vt 0.02100227 0.4103802
vt 0.01334967 0.4201685
vt 0.09091385 0.4494801
vt 0.09399666 0.4377126
vt 0.6891776 0.4372613
vt 0.6854715 0.424867
vt 0.6079096 0.4404508
vt 0.6092725 0.4521374
vt 0.4869278 0.4628574
vt 0.4863276 0.4514308
vt 0.4115056 0.4550272
vt 0.4115152 0.4662543
vt 0.216785 0.4530849
vt 0.2620149 0.04707649
vt 0.1764759 0.03316358
vt 0.09399666 0.4377126
vt 0.08925332 0.4562035
vt 0.08696774 0.4668406
vt 0.214014 0.4818944
vt 0.2149492 0.4712625
vt 0.2919556 0.4736438
vt 0.2919681 0.4840335
vt 0.4116427 0.4829973
vt 0.4115452 0.4727252
vt 0.4873251 0.4694422
vt 0.4880968 0.4798903
vt 0.6112894 0.4697375
vt 0.6100487 0.4589185
vt 0.6913215 0.4443699
vt 0.6947122 0.4554925
vt 0.8288029 0.3977258
vt 0.820157 0.3871013
vt 0.2149492 0.4712625
vt 0.214014 0.4818944
vt 0.2919681 0.4840335
vt 0.2919556 0.4736438
vt 0.007940862 0.4257963
vt 0.0001213215 0.4360115
vt 0.08696774 0.4668406
vt 0.08925332 0.4562035
vt 0.6947122 0.4554925
vt 0.6913215 0.4443699
vt 0.6100487 0.4589185
vt 0.6112894 0.4697375
vt 0.4880968 0.4798903
vt 0.4873251 0.4694422
vt 0.4115452 0.4727252
vt 0.4116427 0.4829973
vt 0.1178015 0.8824961
vt 0.2302163 0.8671613
vt 0.214014 0.4818944
vt 0.08696774 0.4668406

usemtl Glass
usemap Glass
f 2/2/2 1/1/1 3/3/3
f 3/3/3 1/1/1 4/4/4
f 6/6/6 5/5/5 7/7/7
f 7/7/7 5/5/5 8/8/8
f 10/10/10 9/9/9 11/11/11
f 11/11/11 9/9/9 12/12/12
f 11/11/11 12/12/12 13/13/13
f 13/13/13 12/12/12 14/14/14
f 13/13/13 14/14/14 15/15/15
f 15/15/15 14/14/14 16/16/16
f 15/15/15 16/16/16 17/17/17
f 17/17/17 16/16/16 18/18/18
f 17/17/17 18/18/18 19/19/19
f 19/19/19 18/18/18 20/20/20
f 19/19/19 20/20/20 21/21/21
f 21/21/21 20/20/20 22/22/22
f 21/21/21 22/22/22 23/23/23
f 23/23/23 22/22/22 24/24/24
f 23/23/23 24/24/24 25/25/25
f 25/25/25 24/24/24 26/26/26
f 28/28/28 27/27/27 29/29/29
f 29/29/29 27/27/27 30/30/30
f 32/32/32 31/31/31 33/33/33
f 33/33/33 31/31/31 34/34/34
f 36/36/36 35/35/35 37/37/37
f 38/38/38 37/37/37 35/35/35
f 39/39/39 38/38/38 35/35/35
f 40/40/40 38/38/38 39/39/39
f 41/41/41 40/40/40 39/39/39
f 42/42/42 40/40/40 41/41/41
f 44/44/44 43/43/43 45/45/45
f 45/45/45 43/43/43 46/46/46
f 48/48/48 47/47/47 49/49/49
f 49/49/49 47/47/47 50/50/50
f 52/52/52 51/51/51 53/53/53
f 53/53/53 51/51/51 54/54/54
f 56/56/56 55/55/55 57/57/57
f 57/57/57 55/55/55 58/58/58
f 60/60/60 59/59/59 61/61/61
f 61/61/61 59/59/59 62/62/62
f 64/64/64 63/63/63 65/65/65
f 65/65/65 63/63/63 66/66/66
f 68/68/68 67/67/67 69/69/69
f 69/69/69 67/67/67 70/70/70
f 72/72/72 71/71/71 73/73/73
f 73/73/73 71/71/71 74/74/74
f 76/76/76 75/75/75 77/77/77
f 77/77/77 75/75/75 78/78/78
f 80/80/80 79/79/79 81/81/81
f 81/81/81 79/79/79 82/82/82
f 84/84/84 83/83/83 85/85/85
f 85/85/85 83/83/83 86/86/86
f 88/88/88 87/87/87 89/89/89
f 89/89/89 87/87/87 90/90/90
f 92/92/92 91/91/91 93/93/93
f 93/93/93 91/91/91 94/94/94
f 96/96/96 95/95/95 97/97/97
f 97/97/97 95/95/95 98/98/98
f 100/100/100 99/99/99 101/101/101
f 101/101/101 99/99/99 102/102/102
f 104/104/104 103/103/103 105/105/105
f 105/105/105 103/103/103 106/106/106
f 108/108/108 107/107/107 109/109/109
f 109/109/109 107/107/107 110/110/110
f 112/112/112 111/111/111 113/113/113
f 113/113/113 111/111/111 114/114/114
f 116/116/116 115/115/115 117/117/117
f 118/118/118 117/117/117 115/115/115
f 119/119/119 118/118/118 115/115/115
f 120/120/120 118/118/118 119/119/119
f 121/121/121 120/120/120 119/119/119
f 122/122/122 120/120/120 121/121/121
f 124/124/124 123/123/123 125/125/125
f 125/125/125 123/123/123 126/126/126
f 128/128/128 127/127/127 129/129/129
f 129/129/129 127/127/127 130/130/130
f 132/132/132 131/131/131 133/133/133
f 133/133/133 131/131/131 134/134/134
f 136/136/136 135/135/135 137/137/137
f 137/137/137 135/135/135 138/138/138
f 140/140/140 139/139/139 141/141/141
f 141/141/141 139/139/139 142/142/142
f 144/144/144 143/143/143 145/145/145
f 145/145/145 143/143/143 146/146/146
f 148/148/148 147/147/147 149/149/149
f 149/149/149 147/147/147 150/150/150
f 152/152/152 151/151/151 153/153/153
f 153/153/153 151/151/151 154/154/154
f 156/156/156 155/155/155 157/157/157
f 157/157/157 155/155/155 158/158/158
f 160/160/160 159/159/159 161/161/161
f 161/161/161 159/159/159 162/162/162
f 164/164/164 163/163/163 165/165/165
f 165/165/165 163/163/163 166/166/166
f 168/168/168 167/167/167 169/169/169
f 169/169/169 167/167/167 170/170/170
f 172/172/172 171/171/171 173/173/173
f 173/173/173 171/171/171 174/174/174
f 176/176/176 175/175/175 177/177/177
f 177/177/177 175/175/175 178/178/178
f 180/180/180 179/179/179 181/181/181
f 181/181/181 179/179/179 182/182/182
f 184/184/184 183/183/183 185/185/185
f 185/185/185 183/183/183 186/186/186
f 188/188/188 187/187/187 189/189/189
f 189/189/189 187/187/187 190/190/190
f 192/192/192 191/191/191 193/193/193
f 193/193/193 191/191/191 194/194/194
